<svg xmlns="http://www.w3.org/2000/svg" width="1230.451" height="275.27" viewBox="0 0 1230.451 275.27">
  <g id="Groupe_1623" data-name="Groupe 1623" transform="translate(20917.355 -9731.969)">
    <g id="Groupe_1622" data-name="Groupe 1622" transform="translate(-27960.355 2781.969)">
      <g id="Groupe_1006" data-name="Groupe 1006">
        <path id="Tracé_5470" data-name="Tracé 5470" d="M80,0H195.27a80,80,0,0,1,80,80V195.27a80,80,0,0,1-80,80H80a80,80,0,0,1-80-80V80A80,80,0,0,1,80,0Z" transform="translate(7043 6950)" fill="#3b82f6"/>
        <g id="Groupe_932" data-name="Groupe 932" transform="translate(7058.265 6965.265)">
          <circle id="Ellipse_11" data-name="Ellipse 11" cx="44.8" cy="44.8" r="44.8" transform="translate(77.57 77.57)" fill="#fff"/>
          <path id="Ellipse_12" data-name="Ellipse 12" d="M89.6,12.649A76.951,76.951,0,1,0,166.551,89.6,77.039,77.039,0,0,0,89.6,12.649M89.6,0A89.6,89.6,0,1,1,0,89.6,89.6,89.6,0,0,1,89.6,0Z" transform="translate(32.77 32.77)" fill="#fff" opacity="0.8"/>
        </g>
      </g>
      <g id="Groupe_1538" data-name="Groupe 1538" transform="translate(3.867 6.128)">
        <path id="Tracé_5471" data-name="Tracé 5471" d="M886.91,1.414a13.728,13.728,0,0,1-10.027-4.146,13.349,13.349,0,0,1-4.114-9.995,13.172,13.172,0,0,1,4.114-9.9,13.782,13.782,0,0,1,10.027-4.114,13.633,13.633,0,0,1,9.9,4.114,13.617,13.617,0,0,1,4.242,9.9,13.8,13.8,0,0,1-4.242,9.995A13.58,13.58,0,0,1,886.91,1.414Z" transform="translate(7368.533 7147.507)" fill="#3b82f6"/>
      </g>
    </g>
    <path id="Tracé_5472" data-name="Tracé 5472" d="M101.17-89.6a31.142,31.142,0,0,0-11.088-16.455q-7.938-5.978-19.829-5.978a34.16,34.16,0,0,0-18.9,5.335A35.67,35.67,0,0,0,38.34-91.078q-4.724,10.284-4.724,25.132,0,22.368,10.316,34.355T70.767-19.6q14.848,0,23.653-8.292t9.063-22.368H73.146V-68.9h53.413v15.812q0,16.969-7.2,29.278a49.027,49.027,0,0,1-19.8,18.961Q86.965,1.8,70.639,1.8q-18.126,0-31.881-8.2A55.874,55.874,0,0,1,17.322-29.727Q9.641-44.864,9.641-65.69q0-21.211,7.906-36.38A56.933,56.933,0,0,1,39.08-125.337a59.224,59.224,0,0,1,30.852-8.1,61.036,61.036,0,0,1,26.417,5.592,52.731,52.731,0,0,1,19.475,15.458A48.625,48.625,0,0,1,125.466-89.6ZM209.721-41.522V-98.727h23.268V0H210.428V-17.547H209.4A29.754,29.754,0,0,1,198.441-3.985Q190.824,1.286,179.7,1.286q-14.526,0-23.718-9.673T146.8-35.866V-98.727h23.268v59.262q0,9.384,5.142,14.912t13.5,5.528a21.338,21.338,0,0,0,9.963-2.507A20.418,20.418,0,0,0,206.6-29.02Q209.721-34,209.721-41.522ZM255.089,0V-98.727h23.268V0Zm11.7-112.739a13.475,13.475,0,0,1-9.545-3.7,11.752,11.752,0,0,1-3.953-8.9,11.822,11.822,0,0,1,3.953-8.966,13.475,13.475,0,0,1,9.545-3.7,13.4,13.4,0,0,1,9.481,3.7,11.822,11.822,0,0,1,3.953,8.966,11.753,11.753,0,0,1-3.953,8.9A13.4,13.4,0,0,1,266.787-112.739ZM337.094,1.735a37.356,37.356,0,0,1-20.825-5.978Q307.078-10.22,301.743-21.6t-5.335-27.638q0-16.455,5.431-27.767t14.687-17.162a37.827,37.827,0,0,1,20.632-5.849q8.742,0,14.3,2.925a27.976,27.976,0,0,1,8.87,7.006,40.1,40.1,0,0,1,5.046,7.681h.964v-49.235h23.332V0H366.79V-15.555h-1.414a38.974,38.974,0,0,1-5.206,7.617,28.391,28.391,0,0,1-9,6.845Q345.579,1.735,337.094,1.735Zm6.492-19.09q11.12,0,17.162-8.838t6.042-23.171q0-14.4-5.978-22.979t-17.226-8.581q-11.634,0-17.547,8.87t-5.913,22.689q0,13.884,5.978,22.946T343.586-17.354ZM456.444,1.928q-14.848,0-25.614-6.235a41.73,41.73,0,0,1-16.551-17.612q-5.785-11.377-5.785-26.867,0-15.233,5.785-26.771a43.5,43.5,0,0,1,16.294-18q10.509-6.46,24.65-6.46a48.7,48.7,0,0,1,22.432,5.238,39.238,39.238,0,0,1,16.487,16.262q6.2,11.023,6.2,28.378V-43H431.569q.193,12.662,7.038,19.733t18.158,7.07a25.131,25.131,0,0,0,13.016-3.246,18.165,18.165,0,0,0,7.874-9.481l21.725,2.442A34.028,34.028,0,0,1,485.014-5.849Q473.734,1.928,456.444,1.928Zm-24.81-60.612h46.407q-.064-10.091-6.267-16.647t-16.23-6.556q-10.413,0-16.9,6.877A25.066,25.066,0,0,0,431.634-58.684ZM568.852-98.727v18h-20.5V0H525.08V-80.73H510.489v-18H525.08v-9.32q0-9.963,4.146-16.583a25.825,25.825,0,0,1,11.152-9.9,36.253,36.253,0,0,1,15.555-3.278,53.674,53.674,0,0,1,10.734.964,61.412,61.412,0,0,1,6.942,1.735l-4.692,18q-1.414-.45-3.664-.932a23.989,23.989,0,0,0-5.013-.482q-6.492,0-9.191,3.117t-2.7,8.9v7.777Zm39.712-32.909V0H585.3V-131.636ZM673.729,1.928q-14.462,0-25.068-6.363a42.953,42.953,0,0,1-16.422-17.836q-5.817-11.473-5.817-26.706,0-15.3,5.817-26.771a43.167,43.167,0,0,1,16.422-17.869q10.605-6.4,25.068-6.4t25.1,6.4a42.888,42.888,0,0,1,16.422,17.869q5.785,11.473,5.785,26.771,0,15.233-5.785,26.706A42.677,42.677,0,0,1,698.828-4.435Q688.191,1.928,673.729,1.928Zm.129-18.64A20.013,20.013,0,0,0,687-21.018a25.846,25.846,0,0,0,7.842-11.666,48.792,48.792,0,0,0,2.6-16.358,49,49,0,0,0-2.6-16.422A26.292,26.292,0,0,0,687-77.195a19.822,19.822,0,0,0-13.144-4.371,20.174,20.174,0,0,0-13.273,4.371,26.28,26.28,0,0,0-7.938,11.73,48.453,48.453,0,0,0-2.635,16.422,48.25,48.25,0,0,0,2.635,16.358,25.836,25.836,0,0,0,7.938,11.666A20.37,20.37,0,0,0,673.857-16.712ZM756.57,0l-27.9-98.727h23.718L769.746-29.31h.9l17.74-69.418h23.461L829.587-29.7h.964l17.1-69.032H871.43L843.47,0H819.239L800.727-66.718h-1.35L780.866,0Z" transform="translate(-20587.955 9935.604)" fill="#111827"/>
  </g>
</svg>
